<svg xmlns="http://www.w3.org/2000/svg" viewBox="0 0 11.86 18.88"><defs><style>.cls-1{fill:#2c7ffa;}</style></defs><title>absences-2_icon_2</title><g id="Layer_2" data-name="Layer 2"><g id="Abscence_copy" data-name="Abscence copy"><path class="cls-1" d="M.06,18.76a.37.37,0,0,0,.28.12h11.2a.37.37,0,0,0,.28-.12.21.21,0,0,0,0-.24L6.94,9.44,11.84.36a.21.21,0,0,0,0-.24A.37.37,0,0,0,11.53,0H.33A.37.37,0,0,0,.06.12.21.21,0,0,0,0,.36L4.92,9.44,0,18.52A.21.21,0,0,0,.06,18.76ZM5.59,9.54a.21.21,0,0,0,0-.2L.83.52H11L6.28,9.34a.21.21,0,0,0,0,.2L11,18.36H.83Z"/><polygon class="cls-1" points="8.54 14.63 5.93 13.44 3.22 14.63 1.14 18.2 10.68 18.2 8.54 14.63"/><path class="cls-1" d="M5.91,9.44V9.7A0,0,0,0,0,6,9.7V9.44s0,0,0,0L7.89,5.85H4l2,3.56S5.91,9.43,5.91,9.44Z"/><path class="cls-1" d="M6,11.32a0,0,0,0,0-.08,0v.54a0,0,0,0,0,.08,0Z"/><path class="cls-1" d="M6,10.24a0,0,0,0,0-.08,0v.54a0,0,0,0,0,.08,0Z"/><path class="cls-1" d="M5.95,12.37a0,0,0,0,0,0,0v.26a0,0,0,0,0,.08,0V12.4A0,0,0,0,0,5.95,12.37Z"/></g></g></svg>