<svg xmlns="http://www.w3.org/2000/svg" viewBox="0 0 55.7 72.78"><defs><style>.cls-1{fill:#2c7ffa;}</style></defs><title>absences_icon</title><g id="Layer_2" data-name="Layer 2"><g id="Abscence"><polygon class="cls-1" points="50.54 44.01 50.54 40.32 11.12 40.32 3.07 0 0 0 7.24 44.01 50.54 44.01"/><rect class="cls-1" x="27.17" y="44.68" width="1.89" height="24.91"/><path class="cls-1" d="M1,69.11s-.89,2.41,0,3.28a1.23,1.23,0,0,0,1.77,0s.06-2.62.41-2.88,14.87-5.93,24-4.1V63.3S2.66,63,1,69.11Z"/><path class="cls-1" d="M55.3,69.11C53.59,63,29.11,63.3,29.11,63.3v2.12c9.15-1.83,23.67,3.84,24,4.1s.41,2.88.41,2.88a1.23,1.23,0,0,0,1.77,0C56.19,71.52,55.3,69.11,55.3,69.11Z"/><path class="cls-1" d="M19.86,37.41a.5.5,0,0,0,.41.22H37a.5.5,0,0,0,.46-.69L30.15,19.52,37.46,2.1A.5.5,0,0,0,37,1.41H20.27a.5.5,0,0,0-.46.69l7.31,17.42L19.81,36.94A.5.5,0,0,0,19.86,37.41Zm8.27-17.69a.49.49,0,0,0,0-.39L21,2.41H36.25L29.15,19.33a.5.5,0,0,0,0,.39l7.11,16.92H21Z"/><polygon class="cls-1" points="32.53 29.47 28.64 27.19 24.58 29.47 21.47 36.32 35.74 36.32 32.53 29.47"/><path class="cls-1" d="M28.6,19.52V20a.06.06,0,1,0,.12,0v-.5a.06.06,0,0,0,0-.05l2.88-6.84H25.71l2.93,6.84A.06.06,0,0,0,28.6,19.52Z"/><path class="cls-1" d="M28.72,23.13a.06.06,0,0,0-.12,0v1a.06.06,0,1,0,.12,0Z"/><path class="cls-1" d="M28.72,21.05a.06.06,0,1,0-.12,0v1a.06.06,0,0,0,.12,0Z"/><path class="cls-1" d="M28.66,25.14a.06.06,0,0,0-.06.06v.5a.06.06,0,0,0,.12,0v-.5A.06.06,0,0,0,28.66,25.14Z"/></g></g></svg>