<svg xmlns="http://www.w3.org/2000/svg" viewBox="0 0 53.98 45.13"><defs><style>.cls-1{fill:#0080fe;}</style></defs><title>accounting_icon</title><g id="Layer_2" data-name="Layer 2"><g id="Accounting"><path class="cls-1" d="M0,45.13H17.63V0H0Zm8.81-4.94a4.5,4.5,0,1,1,4.5-4.5A4.5,4.5,0,0,1,8.81,40.19Zm-5.19-36H14V7.08H3.63Zm0,5H14v2.87H3.63Zm0,5H14v2.87H3.63Z"/><path class="cls-1" d="M18.18,45.13H35.8V0H18.18ZM27,40.19a4.5,4.5,0,1,1,4.5-4.5A4.5,4.5,0,0,1,27,40.19Zm-5.19-36H32.18V7.08H21.8Zm0,5H32.18v2.87H21.8Zm0,5H32.18v2.87H21.8Z"/><path class="cls-1" d="M36.36,0V45.13H54V0Zm8.81,40.19a4.5,4.5,0,1,1,4.5-4.5A4.5,4.5,0,0,1,45.17,40.19Zm5.19-23H40V14.27H50.36Zm0-5H40V9.24H50.36Zm0-5H40V4.21H50.36Z"/></g></g></svg>