<svg xmlns="http://www.w3.org/2000/svg" viewBox="0 0 42.52 53.47"><defs><style>.cls-1{fill:#001331;}</style></defs><title>bell_icon</title><g id="Layer_2" data-name="Layer 2"><g id="Bell"><path class="cls-1" d="M13.37,47.56H29.14c0,2.66-3.53,5.91-7.89,5.91S13.37,50.23,13.37,47.56Z"/><path class="cls-1" d="M41.6,41.9h0A13.45,13.45,0,0,1,37.26,32V21.82A16,16,0,0,0,27.14,6.93V6a6,6,0,0,0-5.78-6,5.89,5.89,0,0,0-6,5.89v1A16,16,0,0,0,5.26,21.82V32A13.45,13.45,0,0,1,.92,41.89h0a2.46,2.46,0,0,0,1.54,4.37h37.6A2.46,2.46,0,0,0,41.6,41.9Z"/></g></g></svg>