<svg xmlns="http://www.w3.org/2000/svg" viewBox="0 0 67.15 54.75"><defs><style>.cls-1{fill:none;stroke:#2c7ffa;stroke-miterlimit:10;stroke-width:3px;}.cls-2{fill:#2c7ffa;}.cls-3{fill:#0080fe;}</style></defs><title>booking_icon_1</title><g id="Layer_2" data-name="Layer 2"><g id="Appointments_copy" data-name="Appointments copy"><g id="Form_copy" data-name="Form copy"><line class="cls-1" x1="37.32" x2="37.32" y2="17.52"/><line class="cls-1" x1="15.2" x2="15.2" y2="17.52"/><g id="Layer_38_copy" data-name="Layer 38 copy"><polygon class="cls-2" points="52.01 21.99 52.01 6.25 0 6.25 0 54.75 52.01 54.75 52.01 32.17 49.01 34.52 49.01 51.75 3 51.75 3 9.25 49.01 9.25 49.01 24.3 52.01 21.99"/><rect class="cls-2" x="12.2" y="24.09" width="6" height="6"/><rect class="cls-2" x="23" y="24.09" width="6" height="6"/><rect class="cls-2" x="34.32" y="24.09" width="6" height="6"/><rect class="cls-2" x="12.2" y="34.3" width="6" height="6"/><rect class="cls-2" x="23" y="34.3" width="6" height="6"/><polygon class="cls-2" points="34.32 34.28 34.32 40.28 40.32 40.28 40.32 37.8 36.72 38.85 39.6 34.28 34.32 34.28"/></g><rect class="cls-3" x="43.95" y="22.37" width="19.72" height="6.69" transform="translate(-4.55 38.02) rotate(-37.45)"/><rect class="cls-3" x="62.19" y="14.7" width="3.26" height="6.69" transform="translate(2.18 42.53) rotate(-37.45)"/><path class="cls-3" d="M38.22,37.66l8.9-2.6-4.07-5.31C43.2,29.86,38.22,37.66,38.22,37.66Z"/></g></g></g></svg>