<svg xmlns="http://www.w3.org/2000/svg" viewBox="0 0 44.61 44.61"><defs><style>.cls-1,.cls-2{fill:none;stroke:#2c7ffa;stroke-miterlimit:10;stroke-width:2px;}.cls-2{stroke-linecap:round;}.cls-3{fill:#2c7ffa;}</style></defs><title>dashboard_iconAsset 1</title><g id="Layer_2" data-name="Layer 2"><g id="Dashboard"><g id="Dashborad_form"><circle class="cls-1" cx="22.31" cy="22.31" r="21.31"/><path class="cls-2" d="M34.08,11.74a15.81,15.81,0,0,1,3.84,10.35"/><path class="cls-2" d="M6.18,22.09A15.88,15.88,0,0,1,30,8.34"/><path class="cls-2" d="M7.87,29.2a15.79,15.79,0,0,1-1-2.87"/><path class="cls-2" d="M16.89,37.4a15.77,15.77,0,0,1-4.6-2.71"/><path class="cls-2" d="M27.83,37.36a15.77,15.77,0,0,1-5.27.88"/><path class="cls-2" d="M36.67,29.45a15.77,15.77,0,0,1-3.22,4.26"/><path class="cls-3" d="M19.34,19.61C20.67,18,33.78,7.91,33.78,7.91S26.61,22.8,25.27,24.44a3.83,3.83,0,1,1-5.94-4.83Z"/><path class="cls-3" d="M22.31,22.31"/></g></g></g></svg>