<svg xmlns="http://www.w3.org/2000/svg" viewBox="0 0 50.55 55.17"><defs><style>.cls-1{fill:#0080fe;}.cls-2{fill:none;stroke:#000;stroke-miterlimit:10;stroke-width:0.4px;opacity:0.63;}.cls-3{fill:#00558e;}</style></defs><title>inventory_icon</title><g id="Layer_2" data-name="Layer 2"><g id="Inventory"><g id="Layer_20" data-name="Layer 20"><path id="Gear" class="cls-1" d="M45.35,36.24V34.68H36.21a11.53,11.53,0,0,1-23.07,0H4v1.56H6.89A17.73,17.73,0,0,0,8,41l-2.6,1.25,1.36,2.83,2.6-1.25a17.92,17.92,0,0,0,3,3.8l-1.8,2.25,2.45,2,1.79-2.24a17.79,17.79,0,0,0,4.38,2.11l-.64,2.8,3.06.7.64-2.81a17.91,17.91,0,0,0,2.43.18,17.92,17.92,0,0,0,2.43-.18l.64,2.81,3.06-.7-.64-2.8a17.79,17.79,0,0,0,4.38-2.11l1.79,2.24,2.45-2L37,47.6a17.92,17.92,0,0,0,3-3.8l2.6,1.25L44,42.22,41.38,41a17.73,17.73,0,0,0,1.08-4.73Z"/><g id="Layer_19" data-name="Layer 19"><path class="cls-1" d="M25,23.74H4.75A4.75,4.75,0,0,0,0,28.49H0a4.75,4.75,0,0,0,4.75,4.75H25Z"/><rect class="cls-1" x="24.19" y="19.99" width="5.23" height="17" rx="2.61" ry="2.61"/><line class="cls-2" x1="24.19" y1="23.74" x2="24.19" y2="33.24"/><rect class="cls-1" x="24.48" y="26.38" width="17.6" height="4.42"/><line class="cls-2" x1="29.41" y1="26.38" x2="29.41" y2="30.8"/><circle class="cls-1" cx="45.77" cy="28.49" r="4.78"/><path class="cls-2" d="M41.45,26.43A4.54,4.54,0,0,0,41,28.48a4.64,4.64,0,0,0,.59,2.29"/></g><g id="Key"><rect class="cls-1" x="11.5" y="3.83" width="25.96" height="9.17"/><path class="cls-1" d="M6.41,0A8.39,8.39,0,0,0,0,3H4.46A5.27,5.27,0,0,1,9.52,8.41a5.27,5.27,0,0,1-5.06,5.45H0A8.41,8.41,0,1,0,6.41,0Z"/><path class="cls-1" d="M42.08,0A8.42,8.42,0,1,0,50.5,8.43,8.42,8.42,0,0,0,42.08,0Zm0,12.22a3.81,3.81,0,1,1,3.81-3.81A3.81,3.81,0,0,1,42.08,12.23Z"/><rect class="cls-3" x="15.96" y="6.46" width="17.04" height="3.92" rx="0.6" ry="0.6"/></g></g></g></g></svg>