<svg xmlns="http://www.w3.org/2000/svg" viewBox="0 0 43.83 41.83"><defs><style>.cls-1{fill:#0080fe;}</style></defs><title>invoice_icon</title><g id="Layer_2" data-name="Layer 2"><g id="Invoices"><path class="cls-1" d="M38.35,4.84,32.88,0,27.4,4.84,21.92,0,16.44,4.84,11,0,5.48,4.84,0,0V41.83L5.48,37,11,41.83,16.44,37l5.48,4.84L27.4,37l5.48,4.84L38.35,37l5.48,4.84V0ZM24,28H5.85V24.18H24Zm0-6.41H5.85V17.78H24Zm0-6.46H5.85V11.32H24Zm15.07,12a5.36,5.36,0,0,1-3.32,1.41v2.25H33.89V28.58a5.37,5.37,0,0,1-3.3-1.47,4.81,4.81,0,0,1-1.24-3.7l0-.06H31.6a3.19,3.19,0,0,0,.91,2.57,3.35,3.35,0,0,0,2.23.77A3.54,3.54,0,0,0,37.1,26a2.48,2.48,0,0,0,.85-2,2.45,2.45,0,0,0-.74-1.8,6.46,6.46,0,0,0-2.47-1.33,8.5,8.5,0,0,1-3.57-1.91A4.28,4.28,0,0,1,30,15.75a4.49,4.49,0,0,1,1.11-3.15,4.79,4.79,0,0,1,3.06-1.46V8.54H36v2.6a4.48,4.48,0,0,1,3,1.61,5.59,5.59,0,0,1,1.08,3.61h-2.3a3.76,3.76,0,0,0-.74-2.41A2.46,2.46,0,0,0,35,13a2.75,2.75,0,0,0-2.07.72,2.73,2.73,0,0,0-.69,2A2.47,2.47,0,0,0,33,17.56a7,7,0,0,0,2.57,1.34,8.86,8.86,0,0,1,3.55,1.93A4.22,4.22,0,0,1,40.26,24,4.3,4.3,0,0,1,39.05,27.16Z"/></g></g></svg>