<svg xmlns="http://www.w3.org/2000/svg" viewBox="0 0 54.72 54.72"><defs><style>.cls-1{fill:#0080fe;}</style></defs><title>jobs-2_icon</title><g id="Layer_2" data-name="Layer 2"><g id="Jobs_2"><path class="cls-1" d="M21.64,23.76l-19,19C-.46,45.86-.9,50.47,1.67,53s7.18,2.13,10.3-1l19-19A17.73,17.73,0,0,1,21.64,23.76ZM6.27,51.67a2.84,2.84,0,1,1,2.84-2.84A2.84,2.84,0,0,1,6.27,51.67Z"/><path class="cls-1" d="M54,11.87,43.91,21.92c-2.93,2.93-7.9,2.7-11.11-.5s-3.42-8.18-.49-11.1L42.09.55A16.79,16.79,0,1,0,54,11.87Z"/></g></g></svg>