<svg xmlns="http://www.w3.org/2000/svg" viewBox="0 0 49.89 49.89"><defs><style>.cls-1{fill:#001331;}</style></defs><title>logout_icon</title><g id="Layer_2" data-name="Layer 2"><g id="Logout"><path class="cls-1" d="M44.35,0H5.54A5.54,5.54,0,0,0,0,5.54V16.63H5.54V5.54h38.8v38.8H5.54V33.26H0V44.35a5.54,5.54,0,0,0,5.54,5.54h38.8a5.54,5.54,0,0,0,5.54-5.54V5.54A5.54,5.54,0,0,0,44.35,0Z"/><polygon class="cls-1" points="19.64 34.88 23.56 38.8 37.42 24.95 23.56 11.09 19.64 15.01 26.8 22.17 0 22.17 0 27.72 26.8 27.72 19.64 34.88"/></g></g></svg>