<svg xmlns="http://www.w3.org/2000/svg" viewBox="0 0 50 50"><defs><style>.cls-1{fill:#001331;}</style></defs><title>logout_icon_1</title><g id="Layer_2" data-name="Layer 2"><g id="Logout_copy" data-name="Logout copy"><path class="cls-1" d="M25,0A25,25,0,1,0,50,25,25,25,0,0,0,25,0ZM14,23.78H25.82l-3.16-3.16,1.73-1.73L30.5,25l-6.11,6.11-1.73-1.73,3.16-3.16H14Zm22,9.78A2.44,2.44,0,0,1,33.56,36H16.44A2.44,2.44,0,0,1,14,33.56V28.67h2.44v4.89H33.56V16.44H16.44v4.89H14V16.44A2.44,2.44,0,0,1,16.44,14H33.56A2.44,2.44,0,0,1,36,16.44Z"/></g></g></svg>