<svg xmlns="http://www.w3.org/2000/svg" viewBox="0 0 28.7 28.61"><defs><style>.cls-1{fill:#0080fe;}</style></defs><title>map_iconschedule_icon</title><g id="Layer_2" data-name="Layer 2"><g id="Map"><g id="Map_form"><polygon class="cls-1" points="5.71 16.24 4.64 16.24 0 20.9 0 28.61 12.28 28.61 12.28 27.03 5.71 22.99 5.71 16.24"/><polygon class="cls-1" points="24.06 16.24 22.99 16.24 22.99 22.99 16.42 27.03 16.42 28.61 28.7 28.61 28.7 20.9 24.06 16.24"/><path class="cls-1" d="M14.35,0A7.33,7.33,0,0,0,7,7.33c0,4.05,7.33,17.89,7.33,17.89s7.33-13.84,7.33-17.89A7.33,7.33,0,0,0,14.35,0Zm0,10.67a3.33,3.33,0,1,1,3.33-3.33A3.33,3.33,0,0,1,14.35,10.67Z"/></g></g></g></svg>