<svg xmlns="http://www.w3.org/2000/svg" viewBox="0 0 63.31 69.32"><defs><style>.cls-1{fill:#011231;}</style></defs><title>mini-logo_icon</title><g id="Layer_2" data-name="Layer 2"><g id="Mini-logo"><path class="cls-1" d="M36,50.85a6.76,6.76,0,1,0,0-13.51H27.66A15.34,15.34,0,0,1,16.74,33a10.68,10.68,0,0,1-3.23-7.7C13.6,18.71,20,13.51,28.15,13.51H29.6V9.57a2.82,2.82,0,1,1,5.63,0v3.94H36A6.76,6.76,0,1,0,36,0H28.15C12.55,0,.18,11.06,0,25.17A24.17,24.17,0,0,0,7.12,42.54a28.92,28.92,0,0,0,20.54,8.31Z"/><path class="cls-1" d="M56.2,26.86a28.87,28.87,0,0,0-20.5-8.29H27.38a6.74,6.74,0,0,0,0,13.49H35.7a15.31,15.31,0,0,1,10.9,4.28A10.66,10.66,0,0,1,49.82,44c-.09,6.62-6.5,11.81-14.61,11.81h-1v3.91a2.81,2.81,0,1,1-5.62,0V55.83H27.38a6.74,6.74,0,0,0,0,13.49h7.83c15.57,0,27.92-11,28.1-25.13A24.12,24.12,0,0,0,56.2,26.86Z"/></g></g></svg>