<svg xmlns="http://www.w3.org/2000/svg" viewBox="0 0 71.25 71.25"><defs><style>.cls-1{fill:#c4c4c4;}.cls-2{fill:#6093DE;}</style></defs><title>notice-standard_icon</title><g id="Layer_2" data-name="Layer 2"><g id="Bell_copy_2" data-name="Bell copy 2"><g id="Layer_78" data-name="Layer 78"><circle class="cls-1" cx="35.63" cy="35.63" r="35.63"/><path class="cls-2" d="M30.8,48.35h9.64C40.45,50,38.29,52,35.63,52S30.8,50,30.8,48.35Z"/><path class="cls-2" d="M48.06,44.89h0a8.22,8.22,0,0,1-2.65-6.06V32.62a9.78,9.78,0,0,0-6.18-9.1v-.58a3.64,3.64,0,0,0-3.53-3.66A3.6,3.6,0,0,0,32,22.88v.64a9.78,9.78,0,0,0-6.18,9.1v6.22a8.22,8.22,0,0,1-2.65,6.06h0a1.5,1.5,0,0,0,.94,2.67h23a1.5,1.5,0,0,0,.94-2.67Z"/></g></g></g></svg>