<svg xmlns="http://www.w3.org/2000/svg" viewBox="0 0 56.64 55.65"><defs><style>.cls-1{fill:#274156;}.cls-2{fill:#0080fe;}</style></defs><title>payments_icon</title><g id="Layer_2" data-name="Layer 2"><g id="Estimates_copy" data-name="Estimates copy"><g id="Layer_16" data-name="Layer 16"><path class="cls-1" d="M.1,43.4c0,6.81,8.6,12.29,19.2,12.25S38.5,50,38.5,43.23,29.9,30.93,19.3,31,.1,36.59.1,43.4Z"/><ellipse class="cls-2" cx="19.26" cy="42.25" rx="19.17" ry="12.33"/><ellipse class="cls-1" cx="19.26" cy="33.3" rx="19.24" ry="12.33"/><ellipse class="cls-2" cx="19.26" cy="32.24" rx="19.17" ry="12.33"/><ellipse class="cls-1" cx="19.26" cy="23.32" rx="19.24" ry="12.33"/><ellipse class="cls-2" cx="19.26" cy="22.24" rx="19.17" ry="12.33"/><ellipse class="cls-1" cx="19.26" cy="13.41" rx="19.26" ry="12.33"/><ellipse class="cls-2" cx="19.26" cy="12.33" rx="19.17" ry="12.33"/><ellipse class="cls-1" cx="37.56" cy="37.34" rx="18.21" ry="18.12"/><circle class="cls-2" cx="38.43" cy="37.42" r="18.21"/><path class="cls-1" d="M35.19,42.82l2.42-.3V30.8l-2.46,0V29.52l4.58-1v14l2.41.3v1.35H35.19Z"/><path class="cls-1" d="M16.5,15.53l2.42-.19V7.81l-2.46,0V7L21,6.35v9l2.41.19v.87H16.5Z"/></g></g></g></svg>