<svg xmlns="http://www.w3.org/2000/svg" viewBox="0 0 50.97 67.77"><defs><style>.cls-1{fill:#001233;}.cls-2{fill:none;stroke:red;stroke-linecap:round;stroke-linejoin:round;stroke-width:2px;}</style></defs><title>phonecall-1_icon</title><g id="Layer_2" data-name="Layer 2"><g id="Phonecall_1"><g id="Layer_28" data-name="Layer 28"><path class="cls-1" d="M2,10.77a2.08,2.08,0,0,0-2,2.17V65.6a2.08,2.08,0,0,0,2,2.17H38a2.08,2.08,0,0,0,2-2.17V12.94a2.08,2.08,0,0,0-2-2.17m-2.5,46.56a.9.9,0,0,1-.85.93H5.34a.9.9,0,0,1-.85-.93V18.45a.9.9,0,0,1,.85-.93H34.67a.9.9,0,0,1,.85.93ZM23.36,63.7a1.76,1.76,0,0,1-1.68,1.84H18.32a1.76,1.76,0,0,1-1.68-1.84V62.62a1.76,1.76,0,0,1,1.68-1.84h3.36a1.76,1.76,0,0,1,1.68,1.84Z"/><path class="cls-1" d="M29.76,41.77A5.75,5.75,0,0,0,25,40.5c-1.37.11-2.48,2-2.48,2s-1.06-.11-3.75-2.11a9.35,9.35,0,0,1-3.22-5.55,14.11,14.11,0,0,0,1.64-3.17,4.52,4.52,0,0,0-2.9-5.23c-3-1.32-4.63.29-4.63.29a21.13,21.13,0,0,0,6.26,16.16,16.57,16.57,0,0,0,15.29,4.68,12.81,12.81,0,0,0,0-2.33A5.14,5.14,0,0,0,29.76,41.77Z"/><path class="cls-2" d="M36.65,6.14A8.33,8.33,0,0,1,45,14.47"/><path class="cls-2" d="M36.22,1A13.74,13.74,0,0,1,50,14.74"/></g></g></g></svg>