<svg xmlns="http://www.w3.org/2000/svg" viewBox="0 0 50 50"><defs><style>.cls-1{fill:#001331;}</style></defs><title>phonecall-mobile_icon</title><g id="Layer_2" data-name="Layer 2"><g id="phonecall-mobile"><path class="cls-1" d="M25,0A25,25,0,1,0,50,25,25,25,0,0,0,25,0ZM36,35.87A16.91,16.91,0,0,1,20.39,31.1,21.56,21.56,0,0,1,14,14.6s1.71-1.64,4.72-.3a4.61,4.61,0,0,1,3,5.34A14.41,14.41,0,0,1,20,22.88a9.54,9.54,0,0,0,3.29,5.66c2.75,2,3.83,2.16,3.83,2.16s1.13-1.94,2.53-2a5.87,5.87,0,0,1,4.85,1.29A5.24,5.24,0,0,1,36,33.49,13.08,13.08,0,0,1,36,35.87Z"/></g></g></svg>