<svg xmlns="http://www.w3.org/2000/svg" viewBox="0 0 36.17 53.37"><defs><style>.cls-1{fill:#001331;}</style></defs><title>quetion_icon</title><g id="Layer_2" data-name="Layer 2"><g id="Question"><path class="cls-1" d="M10.48,38.34q0-5,1.81-7.55A26.7,26.7,0,0,1,18.76,25a11.72,11.72,0,0,0,3.81-3.76A9.59,9.59,0,0,0,24,16a7,7,0,0,0-1.63-4.84,5.9,5.9,0,0,0-4.62-1.81,5.78,5.78,0,0,0-4,1.48A5.88,5.88,0,0,0,12,15.28H.07L0,15.07Q-.11,7.55,4.79,3.78T17.71,0q8.6,0,13.53,4.34T36.17,16a14.05,14.05,0,0,1-2.69,8.31,19.11,19.11,0,0,1-6.85,6,8.3,8.3,0,0,0-3.13,3.27,11.49,11.49,0,0,0-.81,4.75Zm12.18,15H10.52V43.61H22.66Z"/></g></g></svg>