<svg xmlns="http://www.w3.org/2000/svg" viewBox="0 0 32.27 54.09"><defs><style>.cls-1{fill:#001331;}</style></defs><title>question_icon</title><g id="Layer_2" data-name="Layer 2"><g id="Question"><path class="cls-1" d="M10.73,39q0-5.24,1.21-7.49t5.2-5.66a33.15,33.15,0,0,0,4.54-5.33,10,10,0,0,0,1.69-5.62,7.54,7.54,0,0,0-1.92-5.51,7.33,7.33,0,0,0-5.48-2A8.11,8.11,0,0,0,10.81,9.1,5.88,5.88,0,0,0,8.68,14H.11L0,13.81Q-.11,7.29,4.38,3.64T16,0q7.69,0,12,3.92t4.3,10.88a15.08,15.08,0,0,1-2.69,8.63,33.35,33.35,0,0,1-6.79,7.27,8.37,8.37,0,0,0-2.62,3.48A16.71,16.71,0,0,0,19.63,39Zm9,15.09H10.7V45.56h9.08Z"/></g></g></svg>