<svg xmlns="http://www.w3.org/2000/svg" viewBox="0 0 81.85 81.85"><defs><style>.cls-1{fill:#0080fe;}</style></defs><title>tickets_icon</title><g id="Layer_2" data-name="Layer 2"><g id="Tickets"><rect class="cls-1" x="20.36" y="36.01" width="30.92" height="20.04" rx="3.81" ry="3.81" transform="translate(-22.06 38.81) rotate(-45)"/><path class="cls-1" d="M62.09,8.71,53.39,0,0,53.39l8.71,8.71a7.81,7.81,0,0,1,11,11l8.71,8.71L81.85,28.46l-8.71-8.71a7.81,7.81,0,0,1-11-11ZM51.84,38.79a4.82,4.82,0,0,1,0,6.81L35.37,62.06a4.82,4.82,0,0,1-6.81,0l-8.78-8.78a4.82,4.82,0,0,1,0-6.81L36.26,30a4.82,4.82,0,0,1,6.81,0Zm14.51,3.87-1.06,1.06L63.53,42l1.06-1.06ZM63.19,39.5l-1.06,1.06-1.76-1.76,1.06-1.06ZM60,36.34,59,37.4l-1.76-1.76,1.06-1.06Zm-3.19-3.19-1.06,1.06L54,32.45l1.06-1.06ZM53.68,30l-1.06,1.06-1.76-1.76,1.06-1.06Zm-3.15-3.15L49.47,27.9,47.7,26.13l1.06-1.06Zm-3.19-3.19-1.06,1.06-1.76-1.76,1.06-1.06Zm-3.16-3.16-1.06,1.06-1.76-1.76,1.06-1.06ZM41,17.33,40,18.39,38.2,16.63l1.06-1.06Z"/></g></g></svg>