<svg xmlns="http://www.w3.org/2000/svg" viewBox="0 0 50 50"><defs><style>.cls-1{fill:#001331;}</style></defs><title>bell-mobile_icon</title><g id="Layer_2" data-name="Layer 2"><g id="Bell_copy" data-name="Bell copy"><path class="cls-1" d="M25,0A25,25,0,1,0,50,25,25,25,0,0,0,25,0Zm0,37.43c-2,0-3.67-1.51-3.67-2.75h7.33C28.67,35.92,27,37.43,25,37.43Zm9.75-4a1.14,1.14,0,0,1-1,.62H16.26a1.14,1.14,0,0,1-.71-2h0a6.25,6.25,0,0,0,2-4.61V22.71a7.44,7.44,0,0,1,4.7-6.92v-.49A2.74,2.74,0,0,1,25,12.57a2.77,2.77,0,0,1,2.69,2.78v.44a7.44,7.44,0,0,1,4.7,6.92v4.73a6.25,6.25,0,0,0,2,4.61h0a1.14,1.14,0,0,1,.3,1.42Z"/></g></g></svg>