<svg xmlns="http://www.w3.org/2000/svg" viewBox="0 0 43.33 37.91"><defs><style>.cls-1{fill:#0080fe;}.cls-2{fill:#fff;}.cls-3{fill:#c2cde7;}.cls-4{fill:#def0ff;}.cls-5{fill:#001331;}</style></defs><title>business-account_icon</title><g id="Layer_2" data-name="Layer 2"><g id="Business-account"><g id="Layer_48" data-name="Layer 48"><polygon class="cls-1" points="30.21 8.12 23.29 8.12 24.64 6.77 29.7 1.71 30.02 1.4 30.21 8.12"/><path class="cls-1" d="M30.46,16.92l0-.67H20.31V11.1L19,12.45l-4.08,4.08c0,.13,0,.26,0,.39a4.7,4.7,0,0,1-.92,2.8l-1.14-1.14-1,1L13,20.68a4.76,4.76,0,0,1-3.28,1L1.35,30.05l-.78.78.11,6.4h9.47L24.37,23H23v-2.7h2.7v1.35ZM8.12,32.49H6.77V29.11H8.12Zm2.71,0H9.48V27.08h1.35Zm2.71,0H12.18V31.14h1.36Z"/><path class="cls-1" d="M7.53,20.91l-.95.95-5.9,5.9-.1-4,4.13-4.13,1-1a4.49,4.49,0,0,0,.66,1.17A4.81,4.81,0,0,0,7.53,20.91Z"/><path class="cls-1" d="M10.83,16.59l.51.51-1,1-.64-.64a.68.68,0,0,1-.16-.25.7.7,0,0,1-.12-.35V14.89l1.35-1.35Z"/><path class="cls-1" d="M27.63.81,14.11,14.33a4.61,4.61,0,0,0-2.25-1.81L23.74.64Z"/><path class="cls-1" d="M21.66.68,9.48,12.86v-.62A4.74,4.74,0,0,0,5.38,17L4.18,18.16.58,21.77v-2L4.11,16.2,19.63.68Z"/><polygon class="cls-2" points="24.03 6.09 24.87 7.62 26.4 8.46 24.87 9.3 24.03 10.83 23.19 9.3 21.66 8.46 23.19 7.62 24.03 6.09"/><polygon class="cls-1" points="8.8 0.68 8.8 8.8 0.68 8.8 8.8 0.68"/><path class="cls-3" d="M29.59,7.45l-7.5,9.48H19.63V9.48a2,2,0,0,1,2-2Z"/><polygon class="cls-3" points="31.36 7.45 33.06 7.45 25.56 16.93 23.86 16.93 31.36 7.45"/><path class="cls-3" d="M42.65,9.48v7.45H35l7-8.88A2,2,0,0,1,42.65,9.48Z"/><path class="cls-1" d="M29.59,7.45l-7.5,9.48H19.63V9.48a2,2,0,0,1,2-2Z"/><polygon class="cls-1" points="33.06 7.45 25.56 16.93 23.86 16.93 31.36 7.45 33.06 7.45"/><path class="cls-1" d="M42.65,9.48v7.45H35l7-8.88A2,2,0,0,1,42.65,9.48Z"/><path class="cls-4" d="M42.54,7.45l-.47.6a2,2,0,0,0-1.44-.6Z"/><path class="cls-5" d="M25.73,19H23a1.36,1.36,0,0,0-1.35,1.35V23A1.36,1.36,0,0,0,23,24.37h2.71A1.36,1.36,0,0,0,27.08,23V20.31A1.36,1.36,0,0,0,25.73,19Zm0,4.06H23V20.31h2.71Z"/><path class="cls-5" d="M32.5,19H29.79a1.35,1.35,0,0,0-1.35,1.35V23a1.35,1.35,0,0,0,1.35,1.35H32.5A1.35,1.35,0,0,0,33.85,23V20.31A1.35,1.35,0,0,0,32.5,19Zm0,4.06H29.79V20.31H32.5Z"/><path class="cls-5" d="M32.5,25.73H29.79a1.35,1.35,0,0,0-1.35,1.35v2.71a1.35,1.35,0,0,0,1.35,1.35H32.5a1.35,1.35,0,0,0,1.35-1.35V27.08A1.35,1.35,0,0,0,32.5,25.73Zm0,4.06H29.79V27.08H32.5Z"/><path class="cls-5" d="M39.27,19H36.56a1.35,1.35,0,0,0-1.35,1.35v9.48a1.35,1.35,0,0,0,1.35,1.35h2.71a1.35,1.35,0,0,0,1.35-1.35V20.31A1.35,1.35,0,0,0,39.27,19Zm0,10.83H36.56V20.31h2.71Z"/><path class="cls-5" d="M25.73,25.73H23a1.35,1.35,0,0,0-1.35,1.35v2.71A1.35,1.35,0,0,0,23,31.14h2.71a1.35,1.35,0,0,0,1.35-1.35V27.08A1.35,1.35,0,0,0,25.73,25.73Zm0,4.06H23V27.08h2.71Z"/><path class="cls-5" d="M41.3,6.77H31.14V2a2,2,0,0,0-2-2H9.25a3.38,3.38,0,0,0-2.4,1L1,6.85a3.38,3.38,0,0,0-1,2.4V35.88a2,2,0,0,0,2,2H29.11a2,2,0,0,0,2-2v-2H41.3a2,2,0,0,0,2-2V8.8A2,2,0,0,0,41.3,6.77Zm-39.35,1L7.81,1.95a1.91,1.91,0,0,1,.31-.26V7.45a.68.68,0,0,1-.68.68H1.69A1.91,1.91,0,0,1,1.95,7.81ZM29.79,35.88a.68.68,0,0,1-.68.68H2a.68.68,0,0,1-.68-.68V9.48H7.45a2,2,0,0,0,2-2V1.35H29.11a.66.66,0,0,1,.59.35.6.6,0,0,1,.09.32V6.77H21a2,2,0,0,0-2,2v23a2,2,0,0,0,2,2h8.8ZM42,31.82a.68.68,0,0,1-.68.68H21a.68.68,0,0,1-.68-.68V17.6H42Zm0-15.57H20.31V8.8A.68.68,0,0,1,21,8.12H41.3A.68.68,0,0,1,42,8.8Z"/><path class="cls-5" d="M16.92,32.5h-2v-2a.68.68,0,0,0-.68-.68h-2V26.4a.68.68,0,0,0-.68-.68H8.8a.68.68,0,0,0-.68.68v1.35h-2a.68.68,0,0,0-.68.68V32.5h-2a.68.68,0,0,0,0,1.35H16.92a.68.68,0,0,0,0-1.35Zm-8.8,0H6.77V29.11H8.12Zm2.71,0H9.48V27.08h1.35Zm1.35,0V31.14h1.35V32.5Z"/><path class="cls-5" d="M16,15.36a5.93,5.93,0,0,0-1-2,6.09,6.09,0,0,0-2.18-1.88,6.06,6.06,0,0,0-2.75-.64,4.35,4.35,0,0,0-.72.05A6.06,6.06,0,0,0,4.11,16.2a4.28,4.28,0,0,0-.05.72,6.25,6.25,0,0,0,.12,1.23,6.12,6.12,0,0,0,.52,1.51,6,6,0,0,0,1.88,2.19,6.09,6.09,0,0,0,9.67-4.93A5.76,5.76,0,0,0,16,15.36Zm-6.3,6.3a4.79,4.79,0,0,1-2.21-.76,4.53,4.53,0,0,1-1.16-1.07,4.13,4.13,0,0,1-.66-1.17A4.56,4.56,0,0,1,5.37,17a4.74,4.74,0,0,1,4.11-4.72v4.57a.61.61,0,0,0,.11.35.82.82,0,0,0,.16.25l.63.64,1.49,1.48L13,20.68A4.76,4.76,0,0,1,9.74,21.66ZM14,19.72l-3.14-3.14V12.24a4.25,4.25,0,0,1,1,.27,4.7,4.7,0,0,1,3,4c0,.13,0,.26,0,.39A4.7,4.7,0,0,1,14,19.72Z"/></g></g></g></svg>