<svg xmlns="http://www.w3.org/2000/svg" viewBox="0 0 57.42 31.69"><defs><style>.cls-1{fill:#0080fe;}.cls-2{fill:none;stroke:#000;stroke-miterlimit:10;stroke-width:0.3px;opacity:0.59;}</style></defs><title>clients_iconschedule_icon</title><g id="Layer_2" data-name="Layer 2"><g id="Clients"><g id="Layer_11" data-name="Layer 11"><circle class="cls-1" cx="11.14" cy="10" r="6.08"/><path class="cls-1" d="M11.14,16.82c4.47,0,11.14,5.45,11.14,12.17H0C0,22.27,6.67,16.82,11.14,16.82Z"/><circle class="cls-1" cx="28.71" cy="7.69" r="7.69"/><path class="cls-1" d="M28.71,16.3c-5.65,0-14.08,6.89-14.08,15.39H42.79C42.79,23.19,34.36,16.3,28.71,16.3Z"/><path class="cls-2" d="M14.91,29a16,16,0,0,1,1.6-4.21,18.57,18.57,0,0,1,2.65-3.57"/><circle class="cls-1" cx="46.28" cy="10" r="6.08"/><path class="cls-1" d="M46.28,16.82c-4.47,0-11.14,5.45-11.14,12.17H57.42C57.42,22.27,50.75,16.82,46.28,16.82Z"/><path class="cls-2" d="M42.51,29a16,16,0,0,0-1.6-4.21,18.57,18.57,0,0,0-2.65-3.57"/></g></g></g></svg>