<svg xmlns="http://www.w3.org/2000/svg" viewBox="0 0 36.27 36.84"><defs><style>.cls-1{fill:#0080fe;}</style></defs><title>email_icon</title><g id="Layer_2" data-name="Layer 2"><g id="Logo_copy" data-name="Logo copy"><path class="cls-1" d="M36.27,16.42a16.42,16.42,0,0,1-1,5.87,9.55,9.55,0,0,1-2.84,4.14,6.53,6.53,0,0,1-4.23,1.48A5.11,5.11,0,0,1,25.11,27a4.57,4.57,0,0,1-1.75-2.56h-.27A7.34,7.34,0,0,1,20.37,27a7.52,7.52,0,0,1-3.64.88A7.32,7.32,0,0,1,11,25.56a9.25,9.25,0,0,1-2.1-6.38,10.37,10.37,0,0,1,2.79-7.51,9.91,9.91,0,0,1,7.48-2.89,26.39,26.39,0,0,1,3.78.3,21.58,21.58,0,0,1,3.7.84l-.49,10.44v.54q0,3.59,2.34,3.59,1.77,0,2.82-2.29a14.11,14.11,0,0,0,1-5.84,14,14,0,0,0-1.57-6.75,10.88,10.88,0,0,0-4.47-4.48,13.72,13.72,0,0,0-6.65-1.57,16.79,16.79,0,0,0-8.32,2,13.12,13.12,0,0,0-5.4,5.65A18.58,18.58,0,0,0,4,19.72q0,6.51,3.48,10t10,3.5a29.45,29.45,0,0,0,10.35-2V34.9a26.83,26.83,0,0,1-10.26,1.93q-8.31,0-13-4.48T0,19.86A21.28,21.28,0,0,1,2.52,9.42a17.25,17.25,0,0,1,7-7A20.78,20.78,0,0,1,19.59,0a18.22,18.22,0,0,1,8.68,2,14.36,14.36,0,0,1,5.91,5.76A17.35,17.35,0,0,1,36.27,16.42ZM13.18,19.27q0,5.23,4.11,5.23,4.33,0,4.74-6.58l.27-5.37a11.61,11.61,0,0,0-3-.38,5.54,5.54,0,0,0-4.48,1.91A7.81,7.81,0,0,0,13.18,19.27Z"/></g></g></svg>