<svg xmlns="http://www.w3.org/2000/svg" viewBox="0 0 50.03 34.08"><defs><style>.cls-1{fill:#001331;}</style></defs><title>message_icon</title><g id="Layer_2" data-name="Layer 2"><g id="Message"><path class="cls-1" d="M2.37.24A3.61,3.61,0,0,1,3.63,0H46.4a3.6,3.6,0,0,1,1.26.24L28.49,18.29a5.08,5.08,0,0,1-7,0ZM49.49,32.32A3.59,3.59,0,0,0,50,30.45V3.63a3.61,3.61,0,0,0-.27-1.38L31.82,19.15ZM30.19,20.65a7.95,7.95,0,0,1-10.36,0L2.21,33.79a3.61,3.61,0,0,0,1.42.29H46.4a3.61,3.61,0,0,0,1.42-.29ZM.27,2.25A3.61,3.61,0,0,0,0,3.63V30.45a3.59,3.59,0,0,0,.53,1.87L18.21,19.15Z"/></g></g></svg>