<svg xmlns="http://www.w3.org/2000/svg" viewBox="0 0 53.42 57.08"><defs><style>.cls-1{fill:#001331;}</style></defs><title>settings_icon</title><g id="Layer_2" data-name="Layer 2"><g id="Settings"><path class="cls-1" d="M48.45,28.54A21.7,21.7,0,0,0,48,24.09,2,2,0,0,1,49,22l3.46-2a2,2,0,0,0,.73-2.73l-3.45-6A2,2,0,0,0,47,10.55l-3.46,2a2,2,0,0,1-2.31-.22,21.72,21.72,0,0,0-7.7-4.45A2,2,0,0,1,32.15,6V2a2,2,0,0,0-2-2H23.26a2,2,0,0,0-2,2V6a2,2,0,0,1-1.34,1.88,21.72,21.72,0,0,0-7.7,4.45,2,2,0,0,1-2.31.22l-3.46-2a2,2,0,0,0-2.73.73l-3.45,6A2,2,0,0,0,1,20l3.46,2a2,2,0,0,1,1,2.11,21.71,21.71,0,0,0,0,8.89,2,2,0,0,1-1,2.11L1,37.09a2,2,0,0,0-.73,2.73l3.45,6a2,2,0,0,0,2.73.73l3.46-2a2,2,0,0,1,2.31.22,21.72,21.72,0,0,0,7.7,4.45,2,2,0,0,1,1.34,1.88v4a2,2,0,0,0,2,2h6.89a2,2,0,0,0,2-2v-4A2,2,0,0,1,33.5,49.2a21.72,21.72,0,0,0,7.7-4.45,2,2,0,0,1,2.31-.22l3.46,2a2,2,0,0,0,2.73-.73l3.45-6a2,2,0,0,0-.73-2.73l-3.46-2A2,2,0,0,1,48,33,21.7,21.7,0,0,0,48.45,28.54Zm-20,8.86a9,9,0,1,1,7.1-7.1A9,9,0,0,1,28.48,37.4Z"/></g></g></svg>