<svg xmlns="http://www.w3.org/2000/svg" viewBox="0 0 54.02 57"><defs><style>.cls-1{fill:#0080fe;}</style></defs><title>sms_icon</title><g id="Layer_2" data-name="Layer 2"><g id="Sms"><path class="cls-1" d="M35.52,39v7.57a.9.9,0,0,1-.85.93H5.34a.9.9,0,0,1-.85-.93V7.68a.9.9,0,0,1,.85-.93H34.67a.9.9,0,0,1,.85.93v7.21c.64-.05,1.29-.09,2-.09A23.46,23.46,0,0,1,40,15V2.17A2.08,2.08,0,0,0,38,0H2A2.08,2.08,0,0,0,0,2.17V54.83A2.08,2.08,0,0,0,2,57H38a2.08,2.08,0,0,0,2-2.17V38.88a24.06,24.06,0,0,1-2.54.17C36.78,39.06,36.13,39,35.52,39ZM16.77,3.19a.55.55,0,0,1,.52-.57h5.42a.55.55,0,0,1,.52.57V4.3a.55.55,0,0,1-.52.57H17.3a.55.55,0,0,1-.52-.57Zm6.59,49.74a1.76,1.76,0,0,1-1.68,1.84H18.32a1.76,1.76,0,0,1-1.68-1.84V51.85A1.76,1.76,0,0,1,18.32,50h3.36a1.76,1.76,0,0,1,1.68,1.84Z"/><path class="cls-1" d="M37.47,15.26c-9.14,0-16.54,5.2-16.54,11.62a9.69,9.69,0,0,0,2.83,6.5v8.33l5.79-4.55a18.83,18.83,0,0,0,7.92,1.34C46.61,38.44,54,33.31,54,26.89S46.61,15.26,37.47,15.26ZM30.85,27.42h-3V26.15h3Zm9.72-1.17H38.26v2.58h-1V26.25H34.91V25.12h2.31V22.53h1v2.59h2.31Zm7,1.17h-3V26.15h3Z"/></g></g></svg>